<svg width="23" height="24" viewBox="0 0 23 24" fill="none" xmlns="http://www.w3.org/2000/svg">
<path d="M10.4459 2.03508C6.03757 2.51425 2.49174 6.06008 2.01257 10.3726C1.5334 14.8767 4.1209 18.9017 8.05007 20.4351C8.33757 20.5309 8.62507 20.3392 8.62507 19.9559V18.4226C8.62507 18.4226 8.24174 18.5184 7.76257 18.5184C6.4209 18.5184 5.8459 17.3684 5.75007 16.6976C5.65424 16.3142 5.46257 16.0267 5.17507 15.7392C4.88757 15.6434 4.79174 15.6434 4.79174 15.5476C4.79174 15.3559 5.07924 15.3559 5.17507 15.3559C5.75007 15.3559 6.22924 16.0267 6.4209 16.3142C6.90007 17.0809 7.47507 17.2726 7.76257 17.2726C8.1459 17.2726 8.4334 17.1767 8.62507 17.0809C8.7209 16.4101 9.0084 15.7392 9.5834 15.3559C7.37924 14.8767 5.75007 13.6309 5.75007 11.5226C5.75007 10.4684 6.22924 9.41425 6.90007 8.64758C6.80424 8.45591 6.7084 7.97675 6.7084 7.30591C6.7084 6.92258 6.7084 6.34758 6.9959 5.77258C6.9959 5.77258 8.33757 5.77258 9.67924 7.01841C10.1584 6.82675 10.8292 6.73092 11.5001 6.73092C12.1709 6.73092 12.8417 6.82675 13.4167 7.01841C14.6626 5.77258 16.1001 5.77258 16.1001 5.77258C16.2917 6.34758 16.2917 6.92258 16.2917 7.30591C16.2917 8.07258 16.1959 8.45591 16.1001 8.64758C16.7709 9.41425 17.2501 10.3726 17.2501 11.5226C17.2501 13.6309 15.6209 14.8767 13.4167 15.3559C13.9917 15.8351 14.3751 16.6976 14.3751 17.5601V20.0517C14.3751 20.3392 14.6626 20.6267 15.0459 20.5309C18.5917 19.0934 21.0834 15.6434 21.0834 11.6184C21.0834 5.86842 16.1959 1.36425 10.4459 2.03508Z" fill="#0F0A0A"/>
</svg>
